ffmpeg started on 2025-04-30 at 18:42:42
Report written to "D:\Convert\FFMetrics\reports\ssim_report-6.txt"
Log level: 32
Command line:
ffmpeg -hide_banner -nostdin -i "G:\\\xc0\xed\xe8\xec\xe5\\\xce\xed\xe3\xee\xe8\xed\xe3\xe8\\!_35_\xcb\xe5\xf2\xee_2024\\JamClub\\\xcc\xee\xff \xf1\xfd\xec\xef\xe0\xe9 - \xef\xe0\xf0\xe5\xed\xfc\\JamClub_Senpai_wa_Otokonoko_07_1080p_HEVC.mkv" -i "G:\\\xc0\xed\xe8\xec\xe5\\\xce\xed\xe3\xee\xe8\xed\xe3\xe8\\!_35_\xcb\xe5\xf2\xee_2024\\JamClub\\\xcc\xee\xff \xf1\xfd\xec\xef\xe0\xe9 - \xef\xe0\xf0\xe5\xed\xfc\\JamClub_Senpai_wa_Otokonoko_07_1080p.mp4" -lavfi "[0:v]settb=AVTB,setpts=PTS-STARTPTS,format=pix_fmts=yuv420p10,fps=24000/1001,scale=1920:1080:flags=bicubic[main];[1:v]settb=AVTB,setpts=PTS-STARTPTS,format=pix_fmts=yuv420p,fps=24000/1001,scale=1920:1080:flags=bicubic[ref];[main][ref]ssim=eof_action=endall:stats_file='D\\:/Convert/FFMetrics/logs/ssim_logfile-6.txt'" -f null -
Input #0, matroska,webm, from 'G:\Аниме\Онгоинги\!_35_Лето_2024\JamClub\Моя сэмпай - парень\JamClub_Senpai_wa_Otokonoko_07_1080p_HEVC.mkv':
  Metadata:
    COMPATIBLE_BRANDS: isomiso2avc1mp41
    MAJOR_BRAND     : isom
    MINOR_VERSION   : 512
    ENCODER         : Lavf61.7.100
  Duration: 00:23:13.30, start: -0.001000, bitrate: 887 kb/s
  Stream #0:0: Video: hevc (Main 10), yuv420p10le(tv, bt709, progressive), 1920x1080 [SAR 1:1 DAR 16:9], 23.98 fps, 23.98 tbr, 1k tbn (default)
      Metadata:
        HANDLER_NAME    : VideoHandler
        VENDOR_ID       : [0][0][0][0]
        ENCODER         : Lavc61.19.100 libx265
        BPS             : 690087
        DURATION        : 00:23:12.182708333
        NUMBER_OF_FRAMES: 33379
        NUMBER_OF_BYTES : 120090933
        _STATISTICS_WRITING_APP: mkvpropedit v66.0.0 ('Josie') 64-bit
        _STATISTICS_WRITING_DATE_UTC: 2025-04-29 16:28:04
        _STATISTICS_TAGS: BPS DURATION NUMBER_OF_FRAMES NUMBER_OF_BYTES
  Stream #0:1(eng): Audio: aac (LC), 48000 Hz, stereo, fltp (default)
      Metadata:
        HANDLER_NAME    : SoundHandler
        VENDOR_ID       : [0][0][0][0]
        ENCODER         : Lavc61.19.100 aac
        BPS             : 193864
        DURATION        : 00:23:13.261000000
        NUMBER_OF_FRAMES: 65310
        NUMBER_OF_BYTES : 33762951
        _STATISTICS_WRITING_APP: mkvpropedit v66.0.0 ('Josie') 64-bit
        _STATISTICS_WRITING_DATE_UTC: 2025-04-29 16:28:04
        _STATISTICS_TAGS: BPS DURATION NUMBER_OF_FRAMES NUMBER_OF_BYTES
Input #1, mov,mp4,m4a,3gp,3g2,mj2, from 'G:\Аниме\Онгоинги\!_35_Лето_2024\JamClub\Моя сэмпай - парень\JamClub_Senpai_wa_Otokonoko_07_1080p.mp4':
  Metadata:
    major_brand     : isom
    minor_version   : 512
    compatible_brands: isomiso2avc1mp41
    encoder         : Lavf60.16.100
  Duration: 00:23:13.28, start: 0.000000, bitrate: 3624 kb/s
  Stream #1:0[0x1](und): Video: h264 (High) (avc1 / 0x31637661), yuv420p(progressive), 1920x1080 [SAR 1:1 DAR 16:9], 3429 kb/s, 23.98 fps, 23.98 tbr, 90k tbn (default)
      Metadata:
        handler_name    : VideoHandler
        vendor_id       : [0][0][0][0]
  Stream #1:1[0x2](eng): Audio: aac (LC) (mp4a / 0x6134706D), 48000 Hz, stereo, fltp, 191 kb/s (default)
      Metadata:
        handler_name    : SoundHandler
        vendor_id       : [0][0][0][0]
Stream mapping:
  Stream #0:0 (hevc) -> settb:default
  Stream #1:0 (h264) -> settb:default
  ssim:default -> Stream #0:0 (wrapped_avframe)
  Stream #0:1 -> #0:1 (aac (native) -> pcm_s16le (native))
Output #0, null, to 'pipe:':
  Metadata:
    COMPATIBLE_BRANDS: isomiso2avc1mp41
    MAJOR_BRAND     : isom
    MINOR_VERSION   : 512
    encoder         : Lavf61.7.100
  Stream #0:0: Video: wrapped_avframe, yuv420p10le(tv, bt709, progressive), 1920x1080 [SAR 1:1 DAR 16:9], q=2-31, 200 kb/s, 23.98 fps, 23.98 tbn
      Metadata:
        encoder         : Lavc61.19.100 wrapped_avframe
  Stream #0:1(eng): Audio: pcm_s16le, 48000 Hz, stereo, s16, 1536 kb/s (default)
      Metadata:
        HANDLER_NAME    : SoundHandler
        VENDOR_ID       : [0][0][0][0]
        _STATISTICS_TAGS: BPS DURATION NUMBER_OF_FRAMES NUMBER_OF_BYTES
        BPS             : 193864
        DURATION        : 00:23:13.261000000
        NUMBER_OF_FRAMES: 65310
        NUMBER_OF_BYTES : 33762951
        _STATISTICS_WRITING_APP: mkvpropedit v66.0.0 ('Josie') 64-bit
        _STATISTICS_WRITING_DATE_UTC: 2025-04-29 16:28:04
        encoder         : Lavc61.19.100 pcm_s16le
frame=  119 fps=0.0 q=-0.0 size=N/A time=00:00:04.96 bitrate=N/A speed=9.64x    frame=  286 fps=276 q=-0.0 size=N/A time=00:00:11.92 bitrate=N/A speed=11.5x    frame=  498 fps=319 q=-0.0 size=N/A time=00:00:20.77 bitrate=N/A speed=13.3x    frame=  767 fps=370 q=-0.0 size=N/A time=00:00:31.99 bitrate=N/A speed=15.5x    frame= 1033 fps=399 q=-0.0 size=N/A time=00:00:43.08 bitrate=N/A speed=16.6x    frame= 1255 fps=405 q=-0.0 size=N/A time=00:00:52.34 bitrate=N/A speed=16.9x    frame= 1469 fps=405 q=-0.0 size=N/A time=00:01:01.26 bitrate=N/A speed=16.9x    frame= 1648 fps=399 q=-0.0 size=N/A time=00:01:08.73 bitrate=N/A speed=16.6x    frame= 1880 fps=405 q=-0.0 size=N/A time=00:01:18.41 bitrate=N/A speed=16.9x    frame= 2093 fps=405 q=-0.0 size=N/A time=00:01:27.29 bitrate=N/A speed=16.9x    frame= 2342 fps=412 q=-0.0 size=N/A time=00:01:37.68 bitrate=N/A speed=17.2x    frame= 2557 fps=413 q=-0.0 size=N/A time=00:01:46.64 bitrate=N/A speed=17.2x    frame= 2793 fps=416 q=-0.0 size=N/A time=00:01:56.49 bitrate=N/A speed=17.4x    frame= 3013 fps=417 q=-0.0 size=N/A time=00:02:05.66 bitrate=N/A speed=17.4x    frame= 3280 fps=424 q=-0.0 size=N/A time=00:02:16.80 bitrate=N/A speed=17.7x    frame= 3546 fps=429 q=-0.0 size=N/A time=00:02:27.89 bitrate=N/A speed=17.9x    frame= 3798 fps=432 q=-0.0 size=N/A time=00:02:38.40 bitrate=N/A speed=  18x    frame= 4080 fps=438 q=-0.0 size=N/A time=00:02:50.17 bitrate=N/A speed=18.3x    frame= 4353 fps=443 q=-0.0 size=N/A time=00:03:01.55 bitrate=N/A speed=18.5x    frame= 4648 fps=449 q=-0.0 size=N/A time=00:03:13.86 bitrate=N/A speed=18.7x    frame= 4910 fps=453 q=-0.0 size=N/A time=00:03:24.78 bitrate=N/A speed=18.9x    frame= 5189 fps=456 q=-0.0 size=N/A time=00:03:36.42 bitrate=N/A speed=  19x    frame= 5455 fps=459 q=-0.0 size=N/A time=00:03:47.51 bitrate=N/A speed=19.2x    frame= 5725 fps=462 q=-0.0 size=N/A time=00:03:58.78 bitrate=N/A speed=19.3x    frame= 5992 fps=464 q=-0.0 size=N/A time=00:04:09.91 bitrate=N/A speed=19.3x    frame= 6269 fps=467 q=-0.0 size=N/A time=00:04:21.46 bitrate=N/A speed=19.5x    frame= 6551 fps=470 q=-0.0 size=N/A time=00:04:33.23 bitrate=N/A speed=19.6x    frame= 6820 fps=471 q=-0.0 size=N/A time=00:04:44.45 bitrate=N/A speed=19.7x    frame= 7094 fps=473 q=-0.0 size=N/A time=00:04:55.87 bitrate=N/A speed=19.7x    frame= 7359 fps=475 q=-0.0 size=N/A time=00:05:06.93 bitrate=N/A speed=19.8x    frame= 7603 fps=475 q=-0.0 size=N/A time=00:05:17.10 bitrate=N/A speed=19.8x    frame= 7854 fps=476 q=-0.0 size=N/A time=00:05:27.57 bitrate=N/A speed=19.8x    frame= 8094 fps=475 q=-0.0 size=N/A time=00:05:37.58 bitrate=N/A speed=19.8x    frame= 8341 fps=475 q=-0.0 size=N/A time=00:05:47.88 bitrate=N/A speed=19.8x    frame= 8577 fps=475 q=-0.0 size=N/A time=00:05:57.73 bitrate=N/A speed=19.8x    frame= 8811 fps=474 q=-0.0 size=N/A time=00:06:07.49 bitrate=N/A speed=19.8x    frame= 9042 fps=474 q=-0.0 size=N/A time=00:06:17.12 bitrate=N/A speed=19.8x    frame= 9297 fps=474 q=-0.0 size=N/A time=00:06:27.76 bitrate=N/A speed=19.8x    frame= 9548 fps=474 q=-0.0 size=N/A time=00:06:38.23 bitrate=N/A speed=19.8x    frame= 9807 fps=475 q=-0.0 size=N/A time=00:06:49.03 bitrate=N/A speed=19.8x    frame=10066 fps=476 q=-0.0 size=N/A time=00:06:59.83 bitrate=N/A speed=19.8x    frame=10329 fps=476 q=-0.0 size=N/A time=00:07:10.80 bitrate=N/A speed=19.9x    frame=10574 fps=477 q=-0.0 size=N/A time=00:07:21.02 bitrate=N/A speed=19.9x    frame=10836 fps=477 q=-0.0 size=N/A time=00:07:31.95 bitrate=N/A speed=19.9x    frame=11094 fps=478 q=-0.0 size=N/A time=00:07:42.71 bitrate=N/A speed=19.9x    frame=11355 fps=478 q=-0.0 size=N/A time=00:07:53.59 bitrate=N/A speed=19.9x    frame=11631 fps=480 q=-0.0 size=N/A time=00:08:05.10 bitrate=N/A speed=  20x    frame=11897 fps=480 q=-0.0 size=N/A time=00:08:16.20 bitrate=N/A speed=  20x    frame=12150 fps=481 q=-0.0 size=N/A time=00:08:26.75 bitrate=N/A speed=  20x    frame=12422 fps=481 q=-0.0 size=N/A time=00:08:38.10 bitrate=N/A speed=20.1x    frame=12631 fps=480 q=-0.0 size=N/A time=00:08:46.81 bitrate=N/A speed=  20x    frame=12879 fps=480 q=-0.0 size=N/A time=00:08:57.16 bitrate=N/A speed=  20x    frame=13128 fps=480 q=-0.0 size=N/A time=00:09:07.54 bitrate=N/A speed=  20x    frame=13382 fps=480 q=-0.0 size=N/A time=00:09:18.14 bitrate=N/A speed=  20x    frame=13642 fps=480 q=-0.0 size=N/A time=00:09:28.98 bitrate=N/A speed=  20x    frame=13878 fps=480 q=-0.0 size=N/A time=00:09:38.82 bitrate=N/A speed=  20x    frame=14125 fps=480 q=-0.0 size=N/A time=00:09:49.13 bitrate=N/A speed=  20x    frame=14401 fps=481 q=-0.0 size=N/A time=00:10:00.64 bitrate=N/A speed=20.1x    frame=14674 fps=482 q=-0.0 size=N/A time=00:10:12.02 bitrate=N/A speed=20.1x    frame=14927 fps=482 q=-0.0 size=N/A time=00:10:22.58 bitrate=N/A speed=20.1x    frame=15169 fps=482 q=-0.0 size=N/A time=00:10:32.67 bitrate=N/A speed=20.1x    frame=15436 fps=482 q=-0.0 size=N/A time=00:10:43.80 bitrate=N/A speed=20.1x    frame=15703 fps=483 q=-0.0 size=N/A time=00:10:54.94 bitrate=N/A speed=20.1x    frame=15955 fps=483 q=-0.0 size=N/A time=00:11:05.45 bitrate=N/A speed=20.1x    frame=16214 fps=483 q=-0.0 size=N/A time=00:11:16.25 bitrate=N/A speed=20.2x    frame=16462 fps=483 q=-0.0 size=N/A time=00:11:26.60 bitrate=N/A speed=20.2x    frame=16726 fps=484 q=-0.0 size=N/A time=00:11:37.61 bitrate=N/A speed=20.2x    frame=16995 fps=484 q=-0.0 size=N/A time=00:11:48.83 bitrate=N/A speed=20.2x    frame=17268 fps=485 q=-0.0 size=N/A time=00:12:00.21 bitrate=N/A speed=20.2x    frame=17513 fps=485 q=-0.0 size=N/A time=00:12:10.43 bitrate=N/A speed=20.2x    frame=17766 fps=485 q=-0.0 size=N/A time=00:12:20.99 bitrate=N/A speed=20.2x    frame=18025 fps=485 q=-0.0 size=N/A time=00:12:31.79 bitrate=N/A speed=20.2x    frame=18268 fps=485 q=-0.0 size=N/A time=00:12:41.92 bitrate=N/A speed=20.2x    frame=18518 fps=485 q=-0.0 size=N/A time=00:12:52.35 bitrate=N/A speed=20.2x    frame=18779 fps=485 q=-0.0 size=N/A time=00:13:03.24 bitrate=N/A speed=20.2x    frame=19021 fps=485 q=-0.0 size=N/A time=00:13:13.33 bitrate=N/A speed=20.2x    frame=19267 fps=485 q=-0.0 size=N/A time=00:13:23.59 bitrate=N/A speed=20.2x    frame=19533 fps=485 q=-0.0 size=N/A time=00:13:34.68 bitrate=N/A speed=20.2x    frame=19788 fps=485 q=-0.0 size=N/A time=00:13:45.32 bitrate=N/A speed=20.2x    frame=20041 fps=485 q=-0.0 size=N/A time=00:13:55.87 bitrate=N/A speed=20.2x    frame=20290 fps=485 q=-0.0 size=N/A time=00:14:06.26 bitrate=N/A speed=20.2x    frame=20531 fps=485 q=-0.0 size=N/A time=00:14:16.31 bitrate=N/A speed=20.2x    frame=20757 fps=485 q=-0.0 size=N/A time=00:14:25.73 bitrate=N/A speed=20.2x    frame=21012 fps=485 q=-0.0 size=N/A time=00:14:36.37 bitrate=N/A speed=20.2x    frame=21288 fps=485 q=-0.0 size=N/A time=00:14:47.88 bitrate=N/A speed=20.2x    frame=21550 fps=486 q=-0.0 size=N/A time=00:14:58.81 bitrate=N/A speed=20.3x    frame=21837 fps=486 q=-0.0 size=N/A time=00:15:10.78 bitrate=N/A speed=20.3x    frame=22105 fps=487 q=-0.0 size=N/A time=00:15:21.96 bitrate=N/A speed=20.3x    frame=22379 fps=487 q=-0.0 size=N/A time=00:15:33.39 bitrate=N/A speed=20.3x    frame=22659 fps=488 q=-0.0 size=N/A time=00:15:45.06 bitrate=N/A speed=20.3x    frame=22937 fps=488 q=-0.0 size=N/A time=00:15:56.66 bitrate=N/A speed=20.4x    frame=23183 fps=488 q=-0.0 size=N/A time=00:16:06.92 bitrate=N/A speed=20.4x    frame=23447 fps=488 q=-0.0 size=N/A time=00:16:17.93 bitrate=N/A speed=20.4x    frame=23704 fps=489 q=-0.0 size=N/A time=00:16:28.65 bitrate=N/A speed=20.4x    frame=23965 fps=489 q=-0.0 size=N/A time=00:16:39.54 bitrate=N/A speed=20.4x    frame=24216 fps=489 q=-0.0 size=N/A time=00:16:50.00 bitrate=N/A speed=20.4x    frame=24475 fps=489 q=-0.0 size=N/A time=00:17:00.81 bitrate=N/A speed=20.4x    frame=24725 fps=489 q=-0.0 size=N/A time=00:17:11.23 bitrate=N/A speed=20.4x    frame=24978 fps=489 q=-0.0 size=N/A time=00:17:21.79 bitrate=N/A speed=20.4x    frame=25242 fps=489 q=-0.0 size=N/A time=00:17:32.80 bitrate=N/A speed=20.4x    frame=25490 fps=489 q=-0.0 size=N/A time=00:17:43.14 bitrate=N/A speed=20.4x    frame=25741 fps=489 q=-0.0 size=N/A time=00:17:53.61 bitrate=N/A speed=20.4x    frame=26005 fps=489 q=-0.0 size=N/A time=00:18:04.62 bitrate=N/A speed=20.4x    frame=26274 fps=489 q=-0.0 size=N/A time=00:18:15.84 bitrate=N/A speed=20.4x    frame=26540 fps=489 q=-0.0 size=N/A time=00:18:26.93 bitrate=N/A speed=20.4x    frame=26775 fps=489 q=-0.0 size=N/A time=00:18:36.74 bitrate=N/A speed=20.4x    frame=26999 fps=489 q=-0.0 size=N/A time=00:18:46.08 bitrate=N/A speed=20.4x    frame=27232 fps=488 q=-0.0 size=N/A time=00:18:55.80 bitrate=N/A speed=20.4x    frame=27512 fps=489 q=-0.0 size=N/A time=00:19:07.47 bitrate=N/A speed=20.4x    frame=27766 fps=489 q=-0.0 size=N/A time=00:19:18.07 bitrate=N/A speed=20.4x    frame=28027 fps=489 q=-0.0 size=N/A time=00:19:28.95 bitrate=N/A speed=20.4x    frame=28278 fps=489 q=-0.0 size=N/A time=00:19:39.42 bitrate=N/A speed=20.4x    frame=28499 fps=488 q=-0.0 size=N/A time=00:19:48.64 bitrate=N/A speed=20.4x    frame=28739 fps=488 q=-0.0 size=N/A time=00:19:58.65 bitrate=N/A speed=20.4x    frame=29002 fps=488 q=-0.0 size=N/A time=00:20:09.62 bitrate=N/A speed=20.4x    frame=29262 fps=489 q=-0.0 size=N/A time=00:20:20.46 bitrate=N/A speed=20.4x    frame=29499 fps=488 q=-0.0 size=N/A time=00:20:30.35 bitrate=N/A speed=20.4x    frame=29729 fps=488 q=-0.0 size=N/A time=00:20:39.94 bitrate=N/A speed=20.4x    frame=29985 fps=488 q=-0.0 size=N/A time=00:20:50.62 bitrate=N/A speed=20.4x    frame=30235 fps=488 q=-0.0 size=N/A time=00:21:01.05 bitrate=N/A speed=20.4x    frame=30490 fps=488 q=-0.0 size=N/A time=00:21:11.68 bitrate=N/A speed=20.4x    frame=30709 fps=487 q=-0.0 size=N/A time=00:21:20.82 bitrate=N/A speed=20.3x    frame=30948 fps=487 q=-0.0 size=N/A time=00:21:30.78 bitrate=N/A speed=20.3x    frame=31171 fps=487 q=-0.0 size=N/A time=00:21:40.09 bitrate=N/A speed=20.3x    frame=31402 fps=487 q=-0.0 size=N/A time=00:21:49.72 bitrate=N/A speed=20.3x    frame=31617 fps=486 q=-0.0 size=N/A time=00:21:58.69 bitrate=N/A speed=20.3x    frame=31814 fps=485 q=-0.0 size=N/A time=00:22:06.90 bitrate=N/A speed=20.2x    frame=32004 fps=484 q=-0.0 size=N/A time=00:22:14.83 bitrate=N/A speed=20.2x    frame=32181 fps=483 q=-0.0 size=N/A time=00:22:22.21 bitrate=N/A speed=20.2x    frame=32424 fps=483 q=-0.0 size=N/A time=00:22:32.35 bitrate=N/A speed=20.1x    frame=32700 fps=484 q=-0.0 size=N/A time=00:22:43.86 bitrate=N/A speed=20.2x    frame=32939 fps=483 q=-0.0 size=N/A time=00:22:53.83 bitrate=N/A speed=20.2x    frame=33185 fps=483 q=-0.0 size=N/A time=00:23:04.09 bitrate=N/A speed=20.2x    [Parsed_ssim_10 @ 0000028b4b7791c0] SSIM Y:0.993565 (21.914841) U:0.995151 (23.143066) V:0.995064 (23.066371) All:0.994079 (22.276369)
[out#0/null @ 0000028b43a94e80] video:14343KiB audio:261240KiB subtitle:0KiB other streams:0KiB global headers:0KiB muxing overhead: unknown
frame=33379 fps=483 q=-0.0 Lsize=N/A time=00:23:12.18 bitrate=N/A speed=20.2x    
